<?xml version="1.0" encoding="utf-8" standalone="no"?>
<!DOCTYPE svg PUBLIC "-//W3C//DTD SVG 1.1//EN"
  "http://www.w3.org/Graphics/SVG/1.1/DTD/svg11.dtd">
<svg xmlns:xlink="http://www.w3.org/1999/xlink" width="144pt" height="144pt" viewBox="0 0 144 144" xmlns="http://www.w3.org/2000/svg" version="1.1">
 <metadata>
  <rdf:RDF xmlns:dc="http://purl.org/dc/elements/1.1/" xmlns:cc="http://creativecommons.org/ns#" xmlns:rdf="http://www.w3.org/1999/02/22-rdf-syntax-ns#">
   <cc:Work>
    <dc:type rdf:resource="http://purl.org/dc/dcmitype/StillImage"/>
    <dc:date>2025-05-30T14:19:34.621919</dc:date>
    <dc:format>image/svg+xml</dc:format>
    <dc:creator>
     <cc:Agent>
      <dc:title>Matplotlib v3.10.3, https://matplotlib.org/</dc:title>
     </cc:Agent>
    </dc:creator>
   </cc:Work>
  </rdf:RDF>
 </metadata>
 <defs>
  <style type="text/css">*{stroke-linejoin: round; stroke-linecap: butt}</style>
 </defs>
 <g id="figure_1">
  <g id="patch_1">
   <path d="M 0 144 
L 144 144 
L 144 0 
L 0 0 
L 0 144 
z
" style="fill: none; opacity: 0"/>
  </g>
  <g id="axes_1">
   <g id="patch_2">
    <path d="M 62.770101 115.678598 
C 68.865896 117.243733 75.225592 117.49361 81.425395 116.411569 
C 87.625199 115.329531 93.524272 112.940164 98.729519 109.402682 
C 103.934767 105.8652 108.327938 101.259966 111.616293 95.893861 
C 114.904649 90.527756 117.013485 84.522673 117.802272 78.278782 
C 118.591057 72.03489 118.041879 65.694024 116.191332 59.678724 
C 114.340786 53.663423 111.230906 48.110337 107.068928 43.389499 
C 102.906949 38.668661 97.787414 34.887314 92.051481 32.297441 
C 86.315549 29.707568 80.093516 28.368 73.799998 28.368 
L 73.799999 41.6736 
C 78.205461 41.6736 82.560884 42.611298 86.576037 44.424209 
C 90.59119 46.23712 94.174864 48.884063 97.088249 52.188649 
C 100.001634 55.493236 102.17855 59.380396 103.473933 63.591107 
C 104.769315 67.801817 105.15374 72.240423 104.601591 76.611147 
C 104.049439 80.981871 102.573254 85.185429 100.271405 88.941703 
C 97.969556 92.697976 94.894337 95.92164 91.250663 98.397877 
C 87.60699 100.874114 83.477639 102.546672 79.137777 103.304098 
C 74.797914 104.061527 70.346127 103.886613 66.079071 102.791019 
z
" style="fill: #1f77b4"/>
   </g>
   <g id="patch_3">
    <path d="M 73.800001 28.368 
C 63.002804 28.368 52.568599 32.310757 44.469501 39.45107 
C 36.370402 46.591383 31.150979 56.449156 29.79773 67.161214 
C 28.444479 77.873272 31.048397 88.719366 37.117321 97.649519 
C 43.186244 106.579671 52.312117 112.993442 62.770101 115.678598 
L 66.079071 102.791019 
C 58.758482 100.91141 52.370371 96.42177 48.122125 90.170663 
C 43.873878 83.919556 42.051135 76.327291 42.998411 68.82885 
C 43.945685 61.330409 47.599282 54.429968 53.268651 49.431749 
C 58.938019 44.43353 66.241963 41.6736 73.8 41.6736 
z
" style="fill: #2f2f2f"/>
   </g>
   <g id="text_1">
    <!-- 54% -->
    <g style="fill: #1f77b4" transform="translate(54.65125 77.135) scale(0.16 -0.16)">
     <defs>
      <path id="DejaVuSans-Bold-35" d="M 678 4666 
L 3669 4666 
L 3669 3781 
L 1638 3781 
L 1638 3059 
Q 1775 3097 1914 3117 
Q 2053 3138 2203 3138 
Q 3056 3138 3531 2711 
Q 4006 2284 4006 1522 
Q 4006 766 3489 337 
Q 2972 -91 2053 -91 
Q 1656 -91 1267 -14 
Q 878 63 494 219 
L 494 1166 
Q 875 947 1217 837 
Q 1559 728 1863 728 
Q 2300 728 2551 942 
Q 2803 1156 2803 1522 
Q 2803 1891 2551 2103 
Q 2300 2316 1863 2316 
Q 1603 2316 1309 2248 
Q 1016 2181 678 2041 
L 678 4666 
z
" transform="scale(0.015625)"/>
      <path id="DejaVuSans-Bold-34" d="M 2356 3675 
L 1038 1722 
L 2356 1722 
L 2356 3675 
z
M 2156 4666 
L 3494 4666 
L 3494 1722 
L 4159 1722 
L 4159 850 
L 3494 850 
L 3494 0 
L 2356 0 
L 2356 850 
L 288 850 
L 288 1881 
L 2156 4666 
z
" transform="scale(0.015625)"/>
      <path id="DejaVuSans-Bold-25" d="M 4959 1925 
Q 4738 1925 4616 1733 
Q 4494 1541 4494 1184 
Q 4494 825 4614 633 
Q 4734 441 4959 441 
Q 5184 441 5303 633 
Q 5422 825 5422 1184 
Q 5422 1541 5301 1733 
Q 5181 1925 4959 1925 
z
M 4959 2450 
Q 5541 2450 5875 2112 
Q 6209 1775 6209 1184 
Q 6209 594 5875 251 
Q 5541 -91 4959 -91 
Q 4378 -91 4042 251 
Q 3706 594 3706 1184 
Q 3706 1772 4042 2111 
Q 4378 2450 4959 2450 
z
M 2094 -91 
L 1403 -91 
L 4319 4750 
L 5013 4750 
L 2094 -91 
z
M 1453 4750 
Q 2034 4750 2367 4411 
Q 2700 4072 2700 3481 
Q 2700 2891 2367 2550 
Q 2034 2209 1453 2209 
Q 872 2209 539 2550 
Q 206 2891 206 3481 
Q 206 4072 539 4411 
Q 872 4750 1453 4750 
z
M 1453 4225 
Q 1228 4225 1106 4031 
Q 984 3838 984 3481 
Q 984 3122 1106 2926 
Q 1228 2731 1453 2731 
Q 1678 2731 1798 2926 
Q 1919 3122 1919 3481 
Q 1919 3838 1797 4031 
Q 1675 4225 1453 4225 
z
" transform="scale(0.015625)"/>
     </defs>
     <use xlink:href="#DejaVuSans-Bold-35"/>
     <use xlink:href="#DejaVuSans-Bold-34" transform="translate(69.580078 0)"/>
     <use xlink:href="#DejaVuSans-Bold-25" transform="translate(139.160156 0)"/>
    </g>
   </g>
  </g>
 </g>
</svg>
